Coordinates
version=1
nRows=4
nColumns=63
inDegrees=yes

Units are S.I. units (second, meters, Newtons, ...)
If the header above contains a line with 'inDegrees', this indicates whether rotational values are in degrees (yes) or radians (no).

endheader
time	pelvis_tilt	pelvis_list	pelvis_rotation	pelvis_tx	pelvis_ty	pelvis_tz	hip_flexion_r	hip_adduction_r	hip_rotation_r	knee_angle_r	knee_angle_r_beta	ankle_angle_r	subtalar_angle_r	mtp_angle_r	hip_flexion_l	hip_adduction_l	hip_rotation_l	knee_angle_l	knee_angle_l_beta	ankle_angle_l	subtalar_angle_l	mtp_angle_l	L5_S1_Flex_Ext	L5_S1_Lat_Bending	L5_S1_axial_rotation	L4_L5_Flex_Ext	L4_L5_Lat_Bending	L4_L5_axial_rotation	L3_L4_Flex_Ext	L3_L4_Lat_Bending	L3_L4_axial_rotation	L2_L3_Flex_Ext	L2_L3_Lat_Bending	L2_L3_axial_rotation	L1_L2_Flex_Ext	L1_L2_Lat_Bending	L1_L2_axial_rotation	L1_T12_Flex_Ext	L1_T12_Lat_Bending	L1_T12_axial_rotation	Abs_r3	Abs_r2	Abs_r1	Abs_t1	Abs_t2	neck_flexion	neck_bending	neck_rotation	arm_flex_r	arm_add_r	arm_rot_r	elbow_flex_r	pro_sup_r	wrist_flex_r	wrist_dev_r	arm_flex_l	arm_add_l	arm_rot_l	elbow_flex_l	pro_sup_l	wrist_flex_l	wrist_dev_l
      3.33333333	     -1.97098716	     -3.71342046	     91.80134635	      0.28967517	      0.48827491	      0.80589967	     -7.56820950	     -0.94771770	      3.63919308	      1.33844276	      0.02336023	     26.76727360	     -0.29654995	      0.00000000	     -6.56459695	      1.55669036	      7.86259764	      0.44758984	      0.00781192	     27.93388086	     -7.91027990	      0.00000000	     -0.14397644	     -0.22256479	     -0.64269407	     -0.26737865	     -0.29601117	     -0.68286245	     -0.23653890	     -0.54114403	     -0.68286245	     -0.16455068	     -0.54114403	     -0.56235731	     -0.13369652	     -0.45385412	     -0.52218893	     -0.08226814	     -0.34475286	     -0.48202055	     -1.02840933	     -2.51769741	     -3.57447159	      0.00000000	      0.00000000	     16.15715896	      3.92934796	     -0.07987066	     34.38640799	     -1.72383701	     17.73006861	    149.76754806	     80.84198518	     55.92673486	     25.31897491	      4.89510393	    -19.97742040	     65.96002056	     28.72848518	     77.65563605	    -15.09173754	     -3.66600393
      3.35000000	     -1.99997985	     -3.78432579	     91.77715814	      0.28943945	      0.48837932	      0.80658603	     -7.45720513	     -1.01171547	      3.71680092	      1.32764835	      0.02317184	     26.60076647	     -0.45876308	      0.00000000	     -6.47220816	      1.60983440	      7.70649574	      0.46317064	      0.00808385	     27.63030070	     -7.85168296	      0.00000000	     -0.13168311	     -0.23195457	     -0.63564212	     -0.24454870	     -0.30849958	     -0.67536976	     -0.21634218	     -0.56397434	     -0.67536976	     -0.15050062	     -0.56397434	     -0.55618686	     -0.12228093	     -0.47300176	     -0.51645923	     -0.07524373	     -0.35929763	     -0.47673159	     -0.94059927	     -2.62391649	     -3.53525080	      0.00000000	      0.00000000	     15.83563480	      4.31066686	     -0.38155034	     33.98592726	     -2.09617221	     17.45568574	    149.76702366	     80.81463764	     54.71019444	     25.11371395	      4.95301970	    -19.85618988	     66.00202525	     28.31576705	     78.33081153	    -15.85368974	     -4.22090739
      3.36666667	     -1.99636938	     -3.85161339	     91.83717382	      0.28896539	      0.48849310	      0.80752391	     -7.32819761	     -1.05446121	      3.70174889	      1.36058704	      0.02374672	     26.40062217	     -0.47535194	      0.00000000	     -6.36102295	      1.62923741	      7.67908036	      0.49133062	      0.00857534	     27.36879932	     -7.80580892	      0.00000000	     -0.14232154	     -0.22927158	     -0.62909029	     -0.26430534	     -0.30493121	     -0.66840844	     -0.23382006	     -0.55745093	     -0.66840844	     -0.16265929	     -0.55745093	     -0.55045401	     -0.13215979	     -0.46753061	     -0.51113586	     -0.08132253	     -0.35514168	     -0.47181772	     -1.01658855	     -2.59356600	     -3.49881149	      0.00000000	      0.00000000	     15.94489322	      4.26547907	     -0.33890809	     33.76661377	     -2.29751616	     17.14943243	    149.75164128	     80.81396053	     54.58697154	     25.09827357	      5.09009956	    -19.84721904	     65.92709892	     28.34841934	     78.33559980	    -15.93770663	     -4.27972161
      3.38333333	     -1.91018342	     -4.08908807	     91.73172050	      0.28866844	      0.48821451	      0.80823459	     -6.98988522	     -0.99689749	      4.42311787	      1.44170658	      0.02516253	     25.95080563	     -1.69651148	      0.00000000	     -6.09484141	      1.57250107	      7.58429407	      0.52123546	      0.00909727	     27.02675736	     -7.74666192	      0.00000000	     -0.12130936	     -0.21993958	     -0.47258151	     -0.22528362	     -0.29251964	     -0.50211785	     -0.19929915	     -0.53476110	     -0.50211785	     -0.13864447	     -0.53476110	     -0.41350882	     -0.11264787	     -0.44850079	     -0.38397248	     -0.06931617	     -0.34068641	     -0.35443613	     -0.86650064	     -2.48800052	     -2.62835658	      0.00000000	      0.00000000	     16.28495061	      4.00624753	     -1.55696717	     33.30082090	     -3.07781566	     16.70243567	    149.77836091	     81.69226516	     52.61470218	     23.23418514	      5.44514337	    -19.50629770	     66.54665878	     27.97628304	     78.60327829	    -16.99567602	     -4.72805566
